<svg viewBox="0 0 1920 1080" xmlns="http://www.w3.org/2000/svg"><defs><style>.cls-1{fill:#776770;}.cls-2{fill:#eedbce;}.cls-20,.cls-3,.cls-9{fill:#fff;}.cls-4{fill:#8e8d4e;}.cls-5{fill:#b1c555;}.cls-6{fill:#baa79d;}.cls-14,.cls-7,.cls-8{fill:none;}.cls-14,.cls-7{stroke:#fff;}.cls-10,.cls-11,.cls-12,.cls-14,.cls-16,.cls-18,.cls-19,.cls-20,.cls-21,.cls-22,.cls-7,.cls-8,.cls-9{stroke-miterlimit:10;}.cls-10,.cls-11,.cls-7,.cls-8,.cls-9{stroke-width:8px;}.cls-8{stroke:#df8387;}.cls-10,.cls-11,.cls-12,.cls-9{stroke:#d2d2d2;}.cls-10{fill:#64aced;}.cls-11,.cls-12{fill:#e8e8e8;}.cls-12{stroke-width:4px;}.cls-13{fill:#df8387;}.cls-14{stroke-width:2px;}.cls-15{fill:#595959;}.cls-16{fill:#cecece;}.cls-16,.cls-18,.cls-19,.cls-20,.cls-21,.cls-22{stroke:#383838;stroke-width:0.75px;}.cls-17{fill:#383838;}.cls-18{fill:#ead40a;}.cls-19{fill:#a3a3a3;}.cls-21{fill:#547d7f;}.cls-22{fill:#c44741;}</style></defs><title>Asset 22</title><g id="Layer_2" data-name="Layer 2"><g id="Layer_1-2" data-name="Layer 1"><rect class="cls-1" width="1920" height="1080"/><rect class="cls-2" x="133" y="826" width="489" height="24"/><rect class="cls-2" x="775" y="826" width="1019" height="24"/><rect class="cls-2" x="1771" y="181" width="24" height="669"/><rect class="cls-2" x="133" y="181" width="24" height="669"/><rect class="cls-2" x="133" y="181" width="1431" height="24"/><rect class="cls-2" x="1750" y="181" width="44" height="24"/><rect class="cls-3" x="273" y="783" width="6" height="43"/><rect class="cls-3" x="298" y="783" width="6" height="43"/><rect class="cls-3" x="271" y="782" width="10" height="2"/><rect class="cls-3" x="296" y="782" width="10" height="2"/><rect class="cls-3" x="324" y="783" width="6" height="43"/><rect class="cls-3" x="348" y="783" width="6" height="43"/><rect class="cls-3" x="322" y="782" width="10" height="2"/><rect class="cls-3" x="346" y="782" width="10" height="2"/><rect class="cls-3" x="374" y="783" width="6" height="43"/><rect class="cls-3" x="398" y="783" width="6" height="43"/><rect class="cls-3" x="372" y="782" width="10" height="2"/><rect class="cls-3" x="396" y="782" width="10" height="2"/><rect class="cls-3" x="424" y="783" width="6" height="43"/><rect class="cls-3" x="448" y="783" width="6" height="43"/><rect class="cls-3" x="422" y="782" width="10" height="2"/><rect class="cls-3" x="446" y="782" width="10" height="2"/><rect class="cls-3" x="474" y="783" width="6" height="43"/><rect class="cls-3" x="499" y="783" width="6" height="43"/><rect class="cls-3" x="472" y="782" width="10" height="2"/><rect class="cls-3" x="497" y="782" width="10" height="2"/><rect class="cls-3" x="525" y="783" width="6" height="43"/><rect class="cls-3" x="549" y="783" width="6" height="43"/><rect class="cls-3" x="523" y="782" width="10" height="2"/><rect class="cls-3" x="547" y="782" width="10" height="2"/><rect class="cls-3" x="575" y="783" width="6" height="43"/><rect class="cls-3" x="599" y="783" width="6" height="43"/><rect class="cls-3" x="573" y="782" width="10" height="2"/><rect class="cls-3" x="597" y="782" width="10" height="2"/><rect class="cls-3" x="1323" y="783" width="6" height="43"/><rect class="cls-3" x="1347" y="783" width="6" height="43"/><rect class="cls-3" x="1321" y="782" width="10" height="2"/><rect class="cls-3" x="1345" y="782" width="10" height="2"/><rect class="cls-3" x="1373" y="783" width="6" height="43"/><rect class="cls-3" x="1397" y="783" width="6" height="43"/><rect class="cls-3" x="1371" y="782" width="10" height="2"/><rect class="cls-3" x="1395" y="782" width="10" height="2"/><rect class="cls-3" x="1423" y="783" width="6" height="43"/><rect class="cls-3" x="1448" y="783" width="6" height="43"/><rect class="cls-3" x="1421" y="782" width="10" height="2"/><rect class="cls-3" x="1446" y="782" width="10" height="2"/><rect class="cls-3" x="1474" y="783" width="6" height="43"/><rect class="cls-3" x="1498" y="783" width="6" height="43"/><rect class="cls-3" x="1472" y="782" width="10" height="2"/><rect class="cls-3" x="1496" y="782" width="10" height="2"/><rect class="cls-3" x="1524" y="783" width="6" height="43"/><rect class="cls-3" x="1548" y="783" width="6" height="43"/><rect class="cls-3" x="1522" y="782" width="10" height="2"/><rect class="cls-3" x="1546" y="782" width="10" height="2"/><rect class="cls-3" x="1574" y="783" width="6" height="43"/><rect class="cls-3" x="1598" y="783" width="6" height="43"/><rect class="cls-3" x="1572" y="782" width="10" height="2"/><rect class="cls-3" x="1596" y="782" width="10" height="2"/><rect class="cls-3" x="1624" y="783" width="6" height="43"/><rect class="cls-3" x="1649" y="783" width="6" height="43"/><rect class="cls-3" x="1622" y="782" width="10" height="2"/><rect class="cls-3" x="1647" y="782" width="10" height="2"/><rect class="cls-3" x="1675" y="783" width="6" height="43"/><rect class="cls-3" x="1699" y="783" width="6" height="43"/><rect class="cls-3" x="1673" y="782" width="10" height="2"/><rect class="cls-3" x="1697" y="782" width="10" height="2"/><rect class="cls-3" x="1725" y="783" width="6" height="43"/><rect class="cls-3" x="1749" y="783" width="6" height="43"/><rect class="cls-3" x="1723" y="782" width="10" height="2"/><rect class="cls-3" x="1747" y="782" width="10" height="2"/><rect class="cls-3" x="1749" y="694" width="6" height="43" transform="translate(3504 1431) rotate(180)"/><rect class="cls-3" x="1725" y="694" width="6" height="43" transform="translate(3456 1431) rotate(180)"/><rect class="cls-3" x="1747" y="736" width="10" height="2" transform="translate(3504 1474) rotate(180)"/><rect class="cls-3" x="1723" y="736" width="10" height="2" transform="translate(3456 1474) rotate(180)"/><rect class="cls-3" x="1699" y="694" width="6" height="43" transform="translate(3404 1431) rotate(180)"/><rect class="cls-3" x="1675" y="694" width="6" height="43" transform="translate(3356 1431) rotate(180)"/><rect class="cls-3" x="1697" y="736" width="10" height="2" transform="translate(3404 1474) rotate(180)"/><rect class="cls-3" x="1673" y="736" width="10" height="2" transform="translate(3356 1474) rotate(180)"/><rect class="cls-3" x="1649" y="694" width="6" height="43" transform="translate(3304 1431) rotate(180)"/><rect class="cls-3" x="1624" y="694" width="6" height="43" transform="translate(3254 1431) rotate(180)"/><rect class="cls-3" x="1647" y="736" width="10" height="2" transform="translate(3304 1474) rotate(180)"/><rect class="cls-3" x="1622" y="736" width="10" height="2" transform="translate(3254 1474) rotate(180)"/><rect class="cls-3" x="1598" y="694" width="6" height="43" transform="translate(3202 1431) rotate(180)"/><rect class="cls-3" x="1574" y="694" width="6" height="43" transform="translate(3154 1431) rotate(180)"/><rect class="cls-3" x="1596" y="736" width="10" height="2" transform="translate(3202 1474) rotate(180)"/><rect class="cls-3" x="1572" y="736" width="10" height="2" transform="translate(3154 1474) rotate(180)"/><rect class="cls-3" x="870" y="783" width="6" height="43"/><rect class="cls-3" x="894" y="783" width="6" height="43"/><rect class="cls-3" x="868" y="782" width="10" height="2"/><rect class="cls-3" x="892" y="782" width="10" height="2"/><rect class="cls-3" x="920" y="783" width="6" height="43"/><rect class="cls-3" x="944" y="783" width="6" height="43"/><rect class="cls-3" x="918" y="782" width="10" height="2"/><rect class="cls-3" x="942" y="782" width="10" height="2"/><rect class="cls-3" x="970" y="783" width="6" height="43"/><rect class="cls-3" x="995" y="783" width="6" height="43"/><rect class="cls-3" x="968" y="782" width="10" height="2"/><rect class="cls-3" x="993" y="782" width="10" height="2"/><rect class="cls-3" x="1021" y="783" width="6" height="43"/><rect class="cls-3" x="1045" y="783" width="6" height="43"/><rect class="cls-3" x="1019" y="782" width="10" height="2"/><rect class="cls-3" x="1043" y="782" width="10" height="2"/><rect class="cls-3" x="1071" y="783" width="6" height="43"/><rect class="cls-3" x="1095" y="783" width="6" height="43"/><rect class="cls-3" x="1069" y="782" width="10" height="2"/><rect class="cls-3" x="1093" y="782" width="10" height="2"/><rect class="cls-3" x="1121" y="783" width="6" height="43"/><rect class="cls-3" x="1145" y="783" width="6" height="43"/><rect class="cls-3" x="1119" y="782" width="10" height="2"/><rect class="cls-3" x="1143" y="782" width="10" height="2"/><rect class="cls-3" x="1171" y="783" width="6" height="43"/><rect class="cls-3" x="1196" y="783" width="6" height="43"/><rect class="cls-3" x="1169" y="782" width="10" height="2"/><rect class="cls-3" x="1194" y="782" width="10" height="2"/><rect class="cls-3" x="1222" y="783" width="6" height="43"/><rect class="cls-3" x="1246" y="783" width="6" height="43"/><rect class="cls-3" x="1220" y="782" width="10" height="2"/><rect class="cls-3" x="1244" y="782" width="10" height="2"/><rect class="cls-3" x="1272" y="783" width="6" height="43"/><rect class="cls-3" x="1296" y="783" width="6" height="43"/><rect class="cls-3" x="1270" y="782" width="10" height="2"/><rect class="cls-3" x="1294" y="782" width="10" height="2"/><rect class="cls-3" x="1746.5" y="576.5" width="6" height="43" transform="translate(1151.5 2347.5) rotate(-90)"/><rect class="cls-3" x="1746.5" y="552.5" width="6" height="43" transform="translate(1175.5 2323.5) rotate(-90)"/><rect class="cls-3" x="1723" y="597" width="10" height="2" transform="translate(1130 2326) rotate(-90)"/><rect class="cls-3" x="1723" y="573" width="10" height="2" transform="translate(1154 2302) rotate(-90)"/><rect class="cls-3" x="1746.5" y="626.5" width="6" height="43" transform="translate(1101.5 2397.5) rotate(-90)"/><rect class="cls-3" x="1746.5" y="602.5" width="6" height="43" transform="translate(1125.5 2373.5) rotate(-90)"/><rect class="cls-3" x="1723" y="647" width="10" height="2" transform="translate(1080 2376) rotate(-90)"/><rect class="cls-3" x="1723" y="623" width="10" height="2" transform="translate(1104 2352) rotate(-90)"/><rect class="cls-3" x="1746.5" y="526.5" width="6" height="43" transform="translate(1201.5 2297.5) rotate(-90)"/><rect class="cls-3" x="1746.5" y="502.5" width="6" height="43" transform="translate(1225.5 2273.5) rotate(-90)"/><rect class="cls-3" x="1723" y="547" width="10" height="2" transform="translate(1180 2276) rotate(-90)"/><rect class="cls-3" x="1723" y="523" width="10" height="2" transform="translate(1204 2252) rotate(-90)"/><rect class="cls-3" x="1746.5" y="476.5" width="6" height="43" transform="translate(1251.5 2247.5) rotate(-90)"/><rect class="cls-3" x="1746.5" y="452.5" width="6" height="43" transform="translate(1275.5 2223.5) rotate(-90)"/><rect class="cls-3" x="1723" y="497" width="10" height="2" transform="translate(1230 2226) rotate(-90)"/><rect class="cls-3" x="1723" y="473" width="10" height="2" transform="translate(1254 2202) rotate(-90)"/><rect class="cls-3" x="1746.5" y="426.5" width="6" height="43" transform="translate(1301.5 2197.5) rotate(-90)"/><rect class="cls-3" x="1746.5" y="402.5" width="6" height="43" transform="translate(1325.5 2173.5) rotate(-90)"/><rect class="cls-3" x="1723" y="447" width="10" height="2" transform="translate(1280 2176) rotate(-90)"/><rect class="cls-3" x="1723" y="423" width="10" height="2" transform="translate(1304 2152) rotate(-90)"/><rect class="cls-3" x="1746.5" y="376.5" width="6" height="43" transform="translate(1351.5 2147.5) rotate(-90)"/><rect class="cls-3" x="1746.5" y="352.5" width="6" height="43" transform="translate(1375.5 2123.5) rotate(-90)"/><rect class="cls-3" x="1723" y="397" width="10" height="2" transform="translate(1330 2126) rotate(-90)"/><rect class="cls-3" x="1723" y="373" width="10" height="2" transform="translate(1354 2102) rotate(-90)"/><rect class="cls-3" x="1746.5" y="326.5" width="6" height="43" transform="translate(1401.5 2097.5) rotate(-90)"/><rect class="cls-3" x="1746.5" y="302.5" width="6" height="43" transform="translate(1425.5 2073.5) rotate(-90)"/><rect class="cls-3" x="1723" y="347" width="10" height="2" transform="translate(1380 2076) rotate(-90)"/><rect class="cls-3" x="1723" y="323" width="10" height="2" transform="translate(1404 2052) rotate(-90)"/><rect class="cls-3" x="1746.5" y="276.5" width="6" height="43" transform="translate(1451.5 2047.5) rotate(-90)"/><rect class="cls-3" x="1746.5" y="252.5" width="6" height="43" transform="translate(1475.5 2023.5) rotate(-90)"/><rect class="cls-3" x="1723" y="297" width="10" height="2" transform="translate(1430 2026) rotate(-90)"/><rect class="cls-3" x="1723" y="273" width="10" height="2" transform="translate(1454 2002) rotate(-90)"/><rect class="cls-3" x="1746.5" y="226.5" width="6" height="43" transform="translate(1501.5 1997.5) rotate(-90)"/><rect class="cls-3" x="1746.5" y="202.5" width="6" height="43" transform="translate(1525.5 1973.5) rotate(-90)"/><rect class="cls-3" x="1723" y="247" width="10" height="2" transform="translate(1480 1976) rotate(-90)"/><rect class="cls-3" x="1723" y="223" width="10" height="2" transform="translate(1504 1952) rotate(-90)"/><rect class="cls-3" x="145" y="1036" width="31" height="4"/><rect class="cls-3" x="222" y="1036" width="31" height="4"/><rect class="cls-3" x="299" y="1036" width="31" height="4"/><rect class="cls-3" x="376" y="1036" width="31" height="4"/><rect class="cls-3" y="1036" width="22" height="4"/><rect class="cls-3" x="68" y="1036" width="31" height="4"/><rect class="cls-3" x="453" y="1036" width="31" height="4"/><rect class="cls-3" x="530" y="1036" width="31" height="4"/><rect class="cls-3" x="607" y="1036" width="31" height="4"/><rect class="cls-3" x="684" y="1036" width="31" height="4"/><rect class="cls-3" x="761" y="1036" width="31" height="4"/><rect class="cls-3" x="838" y="1036" width="31" height="4"/><rect class="cls-3" x="915" y="1036" width="31" height="4"/><rect class="cls-3" x="992" y="1036" width="31" height="4"/><rect class="cls-3" x="1069" y="1036" width="31" height="4"/><rect class="cls-3" x="1146" y="1036" width="31" height="4"/><rect class="cls-3" x="1223" y="1036" width="31" height="4"/><rect class="cls-3" x="1300" y="1036" width="31" height="4"/><rect class="cls-3" x="1377" y="1036" width="31" height="4"/><rect class="cls-3" x="1454" y="1036" width="31" height="4"/><rect class="cls-3" x="1531" y="1036" width="31" height="4"/><rect class="cls-3" x="1608" y="1036" width="31" height="4"/><rect class="cls-3" x="1685" y="1036" width="31" height="4"/><rect class="cls-3" x="1762" y="1036" width="31" height="4"/><rect class="cls-3" x="1839" y="1036" width="31" height="4"/><rect class="cls-3" x="1916" y="1036" width="4" height="4"/><rect class="cls-3" x="145" y="56" width="31" height="4"/><rect class="cls-3" x="222" y="56" width="31" height="4"/><rect class="cls-3" x="299" y="56" width="31" height="4"/><rect class="cls-3" x="376" y="56" width="31" height="4"/><rect class="cls-3" y="56" width="22" height="4"/><rect class="cls-3" x="68" y="56" width="31" height="4"/><rect class="cls-3" x="453" y="56" width="31" height="4"/><rect class="cls-3" x="530" y="56" width="31" height="4"/><rect class="cls-3" x="607" y="56" width="31" height="4"/><rect class="cls-3" x="684" y="56" width="31" height="4"/><rect class="cls-3" x="761" y="56" width="31" height="4"/><rect class="cls-3" x="838" y="56" width="31" height="4"/><rect class="cls-3" x="915" y="56" width="31" height="4"/><rect class="cls-3" x="992" y="56" width="31" height="4"/><rect class="cls-3" x="1069" y="56" width="31" height="4"/><rect class="cls-3" x="1146" y="56" width="31" height="4"/><rect class="cls-3" x="1223" y="56" width="31" height="4"/><rect class="cls-3" x="1300" y="56" width="31" height="4"/><rect class="cls-3" x="1377" y="56" width="31" height="4"/><rect class="cls-3" x="1454" y="56" width="31" height="4"/><rect class="cls-3" x="1531" y="56" width="31" height="4"/><rect class="cls-3" x="1608" y="56" width="31" height="4"/><rect class="cls-3" x="1685" y="56" width="31" height="4"/><rect class="cls-3" x="1762" y="56" width="31" height="4"/><rect class="cls-3" x="1839" y="56" width="31" height="4"/><rect class="cls-3" x="1916" y="56" width="4" height="4"/><rect class="cls-3" x="634" y="850" width="15" height="67"/><rect class="cls-3" x="662" y="850" width="15" height="67"/><rect class="cls-3" x="690" y="850" width="15" height="67"/><rect class="cls-3" x="718" y="850" width="15" height="67"/><rect class="cls-3" x="746" y="850" width="15" height="67"/><rect class="cls-3" x="1581" y="114" width="15" height="67"/><rect class="cls-3" x="1609" y="114" width="15" height="67"/><rect class="cls-3" x="1637" y="114" width="15" height="67"/><rect class="cls-3" x="1665" y="114" width="15" height="67"/><rect class="cls-3" x="1693" y="114" width="15" height="67"/><rect class="cls-4" x="66" y="917" width="556" height="70"/><rect class="cls-4" x="-118.5" y="480.5" width="621" height="70" transform="translate(-323.5 707.5) rotate(-90)"/><circle class="cls-5" cx="197" cy="952" r="23"/><circle class="cls-5" cx="109" cy="952" r="23"/><circle class="cls-5" cx="288" cy="952" r="23"/><circle class="cls-5" cx="379" cy="952" r="23"/><circle class="cls-5" cx="470" cy="952" r="23"/><circle class="cls-5" cx="561" cy="952" r="23"/><circle class="cls-5" cx="192" cy="332" r="23"/><circle class="cls-5" cx="192" cy="244" r="23"/><circle class="cls-5" cx="192" cy="423" r="23"/><circle class="cls-5" cx="192" cy="514" r="23"/><circle class="cls-5" cx="192" cy="605" r="23"/><circle class="cls-5" cx="192" cy="696" r="23"/><circle class="cls-5" cx="192" cy="790" r="23"/><rect class="cls-4" x="775" y="917" width="1086" height="70"/><circle class="cls-5" cx="841" cy="952" r="23"/><circle class="cls-5" cx="929" cy="952" r="23"/><circle class="cls-5" cx="983" cy="283" r="23"/><circle class="cls-5" cx="1564" cy="645" r="23"/><circle class="cls-5" cx="1017" cy="952" r="23"/><circle class="cls-5" cx="1105" cy="952" r="23"/><circle class="cls-5" cx="1193" cy="952" r="23"/><circle class="cls-5" cx="1281" cy="952" r="23"/><circle class="cls-5" cx="1369" cy="952" r="23"/><circle class="cls-5" cx="1457" cy="952" r="23"/><circle class="cls-5" cx="1545" cy="952" r="23"/><circle class="cls-5" cx="1633" cy="952" r="23"/><circle class="cls-5" cx="1721" cy="952" r="23"/><circle class="cls-5" cx="1808" cy="952" r="23"/><rect class="cls-6" x="133" y="850" width="489" height="67"/><rect class="cls-6" x="1723" y="114" width="138" height="67"/><rect class="cls-6" x="-268.5" y="515.5" width="736" height="67" transform="translate(-449.5 648.5) rotate(-90)"/><rect class="cls-6" x="1459.5" y="515.5" width="736" height="67" transform="translate(1278.5 2376.5) rotate(-90)"/><rect class="cls-6" x="775" y="850" width="1020" height="67"/><rect class="cls-6" x="66" y="114" width="1498" height="67"/><line class="cls-7" x1="1714" y1="193" x2="1574" y2="193"/><line class="cls-8" x1="1627" y1="193" x2="1613" y2="193"/><line class="cls-8" x1="1601" y1="193" x2="1587" y2="193"/><line class="cls-8" x1="1652" y1="193" x2="1638" y2="193"/><line class="cls-8" x1="1677" y1="193" x2="1663" y2="193"/><line class="cls-8" x1="1702" y1="193" x2="1688" y2="193"/><rect class="cls-2" x="1518" y="678" width="253" height="16"/><rect class="cls-9" x="1703" y="154" width="47" height="47"/><circle class="cls-10" cx="1119.5" cy="615.5" r="56.5"/><circle class="cls-11" cx="1119.5" cy="615.5" r="25.5"/><circle class="cls-9" cx="1119.5" cy="615.5" r="9.5"/><rect class="cls-12" x="874" y="299" width="19" height="8"/><rect class="cls-12" x="871" y="263" width="24" height="36"/><rect class="cls-3" x="876" y="293" width="13" height="3"/><rect class="cls-13" x="884" y="293" width="5" height="3"/><rect class="cls-13" x="877" y="293" width="5" height="3"/><circle class="cls-13" cx="883" cy="271" r="4"/><line class="cls-14" x1="883" y1="269" x2="883" y2="274"/><line class="cls-14" x1="880" y1="271" x2="886" y2="271"/><rect class="cls-15" x="875" y="300" width="16" height="4"/><rect class="cls-12" x="910" y="299" width="19" height="8"/><rect class="cls-12" x="907" y="263" width="24" height="36"/><rect class="cls-3" x="912" y="293" width="13" height="3"/><rect class="cls-13" x="920" y="293" width="5" height="3"/><rect class="cls-13" x="913" y="293" width="5" height="3"/><circle class="cls-13" cx="919" cy="271" r="4"/><line class="cls-14" x1="919" y1="269" x2="919" y2="274"/><line class="cls-14" x1="916" y1="271" x2="922" y2="271"/><rect class="cls-15" x="911" y="300" width="16" height="4"/><rect class="cls-12" x="1717.5" y="232.5" width="19" height="8" transform="translate(1963.5 -1490.5) rotate(90)"/><rect class="cls-12" x="1737" y="218" width="24" height="36" transform="translate(1985 -1513) rotate(90)"/><rect class="cls-3" x="1729" y="235" width="13" height="3" transform="translate(1972 -1499) rotate(90)"/><rect class="cls-13" x="1733" y="238" width="5" height="3" transform="translate(1975 -1496) rotate(90)"/><rect class="cls-13" x="1733" y="231" width="5" height="3" transform="translate(1968 -1503) rotate(90)"/><circle class="cls-13" cx="1759" cy="236" r="4"/><line class="cls-14" x1="1761" y1="236" x2="1756" y2="236"/><line class="cls-14" x1="1759" y1="233" x2="1759" y2="239"/><rect class="cls-15" x="1720" y="234" width="16" height="4" transform="translate(1964 -1492) rotate(90)"/><path class="cls-3" d="M562.7,798.77a1.61,1.61,0,1,0-1.77-1.6,1.59,1.59,0,0,0,.21.77l.57,8.06h6.06l2.26,5.36,3-1.17-.46-1.09-1.66.6-2.19-4.7L563,805l-.08-1h4v-2h-4.12Z"/><path class="cls-3" d="M568.72,810.09a5.62,5.62,0,0,1-5,3.06,5.53,5.53,0,0,1-2.31-10.57l.13,1.64a4,4,0,1,0,6.15,3.87Z"/><path class="cls-3" d="M587.7,798.77a1.61,1.61,0,1,0-1.77-1.6,1.59,1.59,0,0,0,.21.77l.57,8.06h6.06l2.26,5.36,3-1.17-.46-1.09-1.66.6-2.19-4.7L588,805l-.08-1h4v-2h-4.12Z"/><path class="cls-3" d="M593.72,810.09a5.62,5.62,0,0,1-5,3.06,5.53,5.53,0,0,1-2.31-10.57l.13,1.64a4,4,0,1,0,6.15,3.87Z"/><path class="cls-3" d="M1233.7,798.77a1.61,1.61,0,1,0-1.77-1.6,1.59,1.59,0,0,0,.21.77l.57,8.06h6.06l2.26,5.36,3-1.17-.46-1.09-1.66.6-2.19-4.7-5.65,0-.08-1h4v-2h-4.12Z"/><path class="cls-3" d="M1239.72,810.09a5.62,5.62,0,0,1-5,3.06,5.53,5.53,0,0,1-2.31-10.57l.13,1.64a4,4,0,1,0,6.15,3.87Z"/><path class="cls-3" d="M1259.7,798.77a1.61,1.61,0,1,0-1.77-1.6,1.59,1.59,0,0,0,.21.77l.57,8.06h6.06l2.26,5.36,3-1.17-.46-1.09-1.66.6-2.19-4.7-5.65,0-.08-1h4v-2h-4.12Z"/><path class="cls-3" d="M1265.72,810.09a5.62,5.62,0,0,1-5,3.06,5.53,5.53,0,0,1-2.31-10.57l.13,1.64a4,4,0,1,0,6.15,3.87Z"/><rect class="cls-16" x="380.5" y="790.5" width="17" height="32"/><rect class="cls-17" x="383" y="799" width="12" height="6"/><rect class="cls-17" x="383" y="805" width="1" height="9"/><rect class="cls-17" x="382.5" y="789.5" width="1" height="4" transform="translate(-408.5 1174.5) rotate(-90)"/><rect class="cls-17" x="393.5" y="789.5" width="1" height="4" transform="translate(-397.5 1185.5) rotate(-90)"/><rect class="cls-17" x="394" y="805" width="1" height="9"/><rect class="cls-17" x="383" y="815" width="12" height="2"/><rect class="cls-16" x="637" y="1044" width="17" height="32" transform="translate(1705.5 414.5) rotate(90)"/><rect class="cls-17" x="644" y="1057" width="12" height="6" transform="translate(1710 410) rotate(90)"/><rect class="cls-17" x="642" y="1050" width="1" height="9" transform="translate(1697 412) rotate(90)"/><rect class="cls-17" x="659" y="1053" width="1" height="4"/><rect class="cls-17" x="659" y="1064" width="1" height="4"/><rect class="cls-17" x="642" y="1061" width="1" height="9" transform="translate(1708 423) rotate(90)"/><rect class="cls-17" x="630" y="1059" width="12" height="2" transform="translate(1696 424) rotate(90)"/><rect class="cls-16" x="358" y="712" width="17" height="32" transform="translate(1094.5 361.5) rotate(90)"/><rect class="cls-17" x="365" y="725" width="12" height="6" transform="translate(1099 357) rotate(90)"/><rect class="cls-17" x="363" y="718" width="1" height="9" transform="translate(1086 359) rotate(90)"/><rect class="cls-17" x="380" y="721" width="1" height="4"/><rect class="cls-17" x="380" y="732" width="1" height="4"/><rect class="cls-17" x="363" y="729" width="1" height="9" transform="translate(1097 370) rotate(90)"/><rect class="cls-17" x="351" y="727" width="12" height="2" transform="translate(1085 371) rotate(90)"/><rect class="cls-18" x="1601" y="995" width="17" height="32" transform="translate(598.5 2620.5) rotate(-90)"/><rect class="cls-17" x="1599" y="1008" width="12" height="6" transform="translate(594 2616) rotate(-90)"/><rect class="cls-17" x="1612" y="1012" width="1" height="9" transform="translate(596 2629) rotate(-90)"/><rect class="cls-17" x="1595" y="1015" width="1" height="4" transform="translate(3191 2034) rotate(180)"/><rect class="cls-17" x="1595" y="1004" width="1" height="4" transform="translate(3191 2012) rotate(180)"/><rect class="cls-17" x="1612" y="1001" width="1" height="9" transform="translate(607 2618) rotate(-90)"/><rect class="cls-17" x="1613" y="1010" width="12" height="2" transform="translate(608 2630) rotate(-90)"/><rect class="cls-19" x="976.5" y="789.5" width="18" height="33"/><rect class="cls-17" x="979" y="798" width="13" height="6"/><rect class="cls-17" x="979" y="804" width="1" height="9"/><rect class="cls-17" x="979.5" y="788.5" width="1" height="4" transform="translate(189.5 1770.5) rotate(-90)"/><rect class="cls-17" x="990.5" y="788.5" width="1" height="4" transform="translate(200.5 1781.5) rotate(-90)"/><rect class="cls-17" x="990" y="804" width="1" height="9"/><rect class="cls-17" x="979" y="814" width="13" height="2"/><rect class="cls-20" x="1051.5" y="789.5" width="18" height="34"/><rect class="cls-17" x="1054" y="798" width="13" height="6"/><rect class="cls-17" x="1055" y="805" width="1" height="9"/><rect class="cls-17" x="1054.5" y="788.5" width="1" height="4" transform="translate(264.5 1845.5) rotate(-90)"/><rect class="cls-17" x="1066.5" y="788.5" width="1" height="4" transform="translate(276.5 1857.5) rotate(-90)"/><rect class="cls-17" x="1066" y="805" width="1" height="9"/><rect class="cls-17" x="1054" y="815" width="13" height="2"/><rect class="cls-21" x="1077.5" y="789.5" width="18" height="33"/><rect class="cls-17" x="1080" y="798" width="13" height="6"/><rect class="cls-17" x="1080" y="805" width="1" height="9"/><rect class="cls-17" x="1079.5" y="789.5" width="1" height="4" transform="translate(288.5 1871.5) rotate(-90)"/><rect class="cls-17" x="1091.5" y="789.5" width="1" height="4" transform="translate(300.5 1883.5) rotate(-90)"/><rect class="cls-17" x="1091" y="805" width="1" height="9"/><rect class="cls-17" x="1080" y="815" width="13" height="2"/><rect class="cls-22" x="431.5" y="789.5" width="17" height="32"/><rect class="cls-17" x="434" y="797" width="12" height="6"/><rect class="cls-17" x="434" y="804" width="1" height="9"/><rect class="cls-17" x="433.5" y="788.5" width="1" height="4" transform="translate(-356.5 1224.5) rotate(-90)"/><rect class="cls-17" x="444.5" y="788.5" width="1" height="4" transform="translate(-345.5 1235.5) rotate(-90)"/><rect class="cls-17" x="445" y="804" width="1" height="9"/><rect class="cls-17" x="434" y="814" width="12" height="2"/></g></g></svg>